<?xml version="1.0" encoding="UTF-8"?>
<svg width="392px" height="329px" viewBox="0 0 392 329" version="1.1" xmlns="http://www.w3.org/2000/svg" xmlns:xlink="http://www.w3.org/1999/xlink">
    <title>编组 2</title>
    <defs>
        <linearGradient x1="51200%" y1="111695%" x2="51200%" y2="72595%" id="linearGradient-1">
            <stop stop-color="#F3F8FF" offset="0%"></stop>
            <stop stop-color="#E8F2FF" offset="100%"></stop>
        </linearGradient>
        <linearGradient x1="134.97%" y1="101337.498%" x2="86.97%" y2="101345.422%" id="linearGradient-2">
            <stop stop-color="#DEE7F6" stop-opacity="0.699328016" offset="0%"></stop>
            <stop stop-color="#D5DCF5" stop-opacity="0" offset="100%"></stop>
        </linearGradient>
        <linearGradient x1="0%" y1="100%" x2="0%" y2="0%" id="linearGradient-3">
            <stop stop-color="#819CFF" offset="0%"></stop>
            <stop stop-color="#B8C7FF" offset="100%"></stop>
        </linearGradient>
        <linearGradient x1="0%" y1="99.68159%" x2="0%" y2="0%" id="linearGradient-4">
            <stop stop-color="#86AFF2" offset="3.9328836%"></stop>
            <stop stop-color="#A9CAFF" offset="100%"></stop>
        </linearGradient>
        <linearGradient x1="0%" y1="138.30129%" x2="0%" y2="27.182427%" id="linearGradient-5">
            <stop stop-color="#5F9AFC" offset="0%"></stop>
            <stop stop-color="#9DC2FF" offset="100%"></stop>
        </linearGradient>
        <linearGradient x1="50%" y1="100%" x2="50%" y2="-18.050529%" id="linearGradient-6">
            <stop stop-color="#5E9BFF" offset="0%"></stop>
            <stop stop-color="#E2EDFF" offset="100%"></stop>
        </linearGradient>
        <linearGradient x1="0%" y1="100%" x2="0%" y2="0%" id="linearGradient-7">
            <stop stop-color="#DFEAFF" offset="0.13504562%"></stop>
            <stop stop-color="#FFFFFF" offset="100%"></stop>
        </linearGradient>
        <radialGradient cx="24.042307%" cy="50%" fx="24.042307%" fy="50%" r="66.169447%" id="radialGradient-8">
            <stop stop-color="#F2F7FF" offset="0%"></stop>
            <stop stop-color="#99C0FF" offset="100%"></stop>
        </radialGradient>
        <linearGradient x1="4073.04%" y1="102265.5%" x2="4073.04%" y2="102184.47%" id="linearGradient-9">
            <stop stop-color="#143B7B" offset="0%"></stop>
            <stop stop-color="#1E4481" offset="100%"></stop>
        </linearGradient>
        <linearGradient x1="102.149562%" y1="35.677445%" x2="1.33573708e-14%" y2="65.5212895%" id="linearGradient-10">
            <stop stop-color="#6BA3FF" offset="0%"></stop>
            <stop stop-color="#CDE0FF" offset="100%"></stop>
        </linearGradient>
    </defs>
    <g id="页面-1" stroke="none" stroke-width="1" fill="none" fill-rule="evenodd">
        <g id="企业关系" transform="translate(-524.000000, -363.000000)">
            <g id="编组-2" transform="translate(524.000000, 363.000000)">
                <g id="空空如也">
                    <polygon id="_路径" fill="#F6FAFF" fill-rule="nonzero" points="53.7650943 72.6485192 53.4198113 71.2399826 52.9306604 69.9176829 52.2688679 68.6816202 51.4919811 67.5317944 50.6 66.4969512 49.5929245 65.5770906 48.4707547 64.7722125 47.2910377 64.0823171 46.025 63.5648955 44.7014151 63.1624564 43.320283 62.9324913 41.8528302 62.875 40.7018868 62.9324913 38.4575472 63.3349303 36.3283019 64.168554 35.3212264 64.7434669 33.479717 66.1232578 31.465566 65.462108 29.3938679 65.2608885 28.2716981 65.2896341 27.2070755 65.462108 26.1712264 65.7495645 25.1929245 66.1520035 24.2721698 66.6694251 23.4089623 67.2730836 22.6033019 67.9629791 21.8839623 68.7678571 21.279717 69.6302265 20.7330189 70.5500871 20.3301887 71.5561847 20.0136792 72.6485192 18.8915094 72.9934669 17.8556604 73.4821429 16.9349057 74.114547 16.1292453 74.8619338 15.4099057 75.7243031 14.834434 76.6729094 14.4028302 77.7077526 14.1150943 78.8000871 14 79.9786585 14.1150943 81.0422474 14.345283 82.0483449 14.690566 82.9969512 15.179717 83.8880662 15.7551887 84.7216899 16.4169811 85.440331 17.1938679 86.1014808 18.0283019 86.6476481 18.920283 87.0788328 19.8985849 87.3950348 20.9056604 87.5675087 21.970283 87.625 51.779717 87.625 52.8443396 87.5675087 53.8514151 87.3950348 54.829717 87.0788328 55.7216981 86.6476481 56.5561321 86.1302265 57.3330189 85.4690767 57.9948113 84.7504355 58.570283 83.9168118 59.059434 83.0256969 59.404717 82.0770906 59.6349057 81.070993 59.75 80.0074042 59.6349057 78.8288328 59.3471698 77.7364983 58.915566 76.7016551 58.3400943 75.7530488 57.6495283 74.8906794 56.8150943 74.1432927 55.8943396 73.5108885 54.8872642 73.0222125"></polygon>
                    <polygon id="_路径-2" fill="#F6FAFF" fill-rule="nonzero" points="291.026351 41.6324324 289.447297 39.7027027 287.521622 38.1513514 285.287838 37.0540541 284.132432 36.6756757 281.629054 36.3351351 280.82027 35.2378378 278.933108 33.4216216 276.699324 32.0594595 274.195946 31.2648649 271.538514 31 269.920946 31.1135135 268.380405 31.3783784 266.839865 31.9081081 265.414865 32.5891892 264.105405 33.4594595 262.872973 34.5189189 260.716216 34.1027027 258.328378 34.1027027 257.134459 34.3297297 254.900676 35.0864865 253.591216 35.8810811 252.435811 36.827027 251.434459 37.9621622 250.394595 39.8540541 249.855405 42.0108108 248.584459 42.3891892 247.429054 42.9567568 246.389189 43.6756757 245.464865 44.5459459 244.656081 45.4918919 244.001351 46.5891892 243.500676 47.7243243 243.154054 48.972973 243 50.2972973 243.077027 51.4702703 243.346622 52.6054054 243.77027 53.6648649 244.347973 54.6864865 245.041216 55.5945946 245.888514 56.427027 247.852703 57.7891892 250.163514 58.6972973 251.434459 58.9243243 252.743919 59 290.256081 59 291.604054 58.9243243 292.875 58.6972973 294.068919 58.3189189 296.225676 57.1837838 297.997297 55.5945946 298.690541 54.6864865 299.22973 53.6648649 299.653378 52.6054054 299.922973 51.4702703 300 50.2972973 299.922973 49.1621622 299.730405 48.1027027 299.34527 47.0810811 298.844595 46.0972973 297.958784 44.9243243 296.880405 43.9027027 295.609459 43.0324324 294.569595 42.5027027 292.297297 41.7837838"></polygon>
                    <polygon id="_路径-3" fill="#E1EEFF" fill-rule="nonzero" points="367.552941 19.6650307 366.558824 17.8773006 365.411765 16.1656442 364.15 14.6441718 362.735294 13.198773 361.167647 11.9055215 359.561765 10.802454 357.802941 9.81349693 355.967647 8.97668712 354.094118 8.33006135 352.105882 7.87361963 350.117647 7.56932515 348.014706 7.45521472 345.720588 7.60736196 343.464706 7.94969325 341.247059 8.55828221 339.105882 9.39509202 337.079412 10.4601227 335.167647 11.7153374 333.255882 8.71042945 330.961765 6.08588957 329.202941 4.56441718 327.329412 3.27116564 325.302941 2.16809816 323.161765 1.25521472 320.982353 0.608588957 318.688235 0.190184049 315.208824 0 313.411765 0.152147239 311.614706 0.418404908 309.855882 0.836809816 306.529412 2.05398773 305 2.89079755 303.05 4.14601227 301.252941 5.59141104 299.647059 7.18895706 298.194118 8.97668712 296.970588 10.9165644 295.938235 12.9705521 294.791176 16.2417178 294.217647 19.7791411 292.305882 20.4638037 290.547059 21.3006135 288.864706 22.2895706 287.335294 23.392638 285.882353 24.6478528 284.544118 25.9791411 283.358824 27.4245399 282.288235 28.9840491 281.332353 30.6196319 280.567647 32.3312883 279.955882 34.0809816 279.458824 35.9447853 279.152941 37.808589 279 39.7104294 279.038235 41.6883436 279.267647 43.6662577 279.65 45.6441718 280.223529 47.5079755 280.911765 49.2957055 281.791176 50.9693252 282.785294 52.604908 283.932353 54.0883436 285.194118 55.4957055 286.570588 56.7889571 288.061765 57.9300613 289.629412 58.9570552 291.311765 59.8699387 293.070588 60.6306748 294.867647 61.201227 296.779412 61.6196319 298.691176 61.8858896 300.717647 62 361.244118 62 363.270588 61.9239264 365.220588 61.6576687 367.094118 61.201227 368.929412 60.6306748 370.688235 59.8699387 372.370588 58.9570552 373.938235 57.9300613 375.429412 56.7509202 376.844118 55.4576687 378.105882 54.0883436 379.214706 52.5668712 380.247059 50.9312883 381.126471 49.2196319 381.814706 47.4319018 382.388235 45.5300613 382.770588 43.5521472 382.961765 41.5742331 383 39.596319 382.847059 37.6944785 382.502941 35.792638 382.005882 33.9668712 381.355882 32.1791411 380.552941 30.4674847 379.597059 28.8319018 378.526471 27.2723926 377.302941 25.8269939 375.964706 24.4957055 374.473529 23.2785276 372.905882 22.1754601 371.223529 21.2245399"></polygon>
                    <polygon id="_路径-4" fill="#E1EEFF" fill-rule="nonzero" points="92.4147059 52.123773 91.6691176 50.7829755 90.8088235 49.4992331 89.8625 48.3581288 88.8014706 47.2740798 87.6257353 46.3041411 86.4213235 45.4768405 85.1022059 44.7351227 83.7257353 44.1075153 82.3205882 43.622546 80.8294118 43.2802147 79.3382353 43.0519939 77.7610294 42.966411 76.0404412 43.0805215 74.3485294 43.3372699 72.6852941 43.7937117 71.0794118 44.421319 69.5595588 45.220092 68.1257353 46.1615031 66.6919118 43.9078221 64.9713235 41.9394172 63.6522059 40.7983129 62.2470588 39.8283742 60.7272059 39.0010736 59.1213235 38.316411 57.4867647 37.8314417 55.7661765 37.517638 53.1566176 37.375 51.8088235 37.4891104 50.4610294 37.6888037 49.1419118 38.0026074 46.6470588 38.9154908 45.5 39.5430982 44.0375 40.4845092 42.6897059 41.5685583 41.4852941 42.7667178 40.3955882 44.1075153 39.4779412 45.5624233 38.7036765 47.1029141 37.8433824 49.5562883 37.4132353 52.2093558 35.9794118 52.7228528 34.6602941 53.3504601 33.3985294 54.0921779 32.2514706 54.9194785 31.1617647 55.8608896 30.1580882 56.8593558 29.2691176 57.9434049 28.4661765 59.1130368 27.7492647 60.3397239 27.1757353 61.6234663 26.7169118 62.9357362 26.3441176 64.333589 26.1147059 65.7314417 26 67.1578221 26.0286765 68.6412577 26.2007353 70.1246933 26.4875 71.6081288 26.9176471 73.0059816 27.4338235 74.3467791 28.0933824 75.6019939 28.8389706 76.828681 29.6992647 77.9412577 30.6455882 78.9967791 31.6779412 79.9667178 32.7963235 80.822546 33.9720588 81.5927914 35.2338235 82.277454 36.5529412 82.8480061 37.9007353 83.2759202 39.3345588 83.5897239 40.7683824 83.7894172 42.2882353 83.875 87.6830882 83.875 89.2029412 83.8179448 90.6654412 83.6182515 92.0705882 83.2759202 93.4470588 82.8480061 94.7661765 82.277454 96.0279412 81.5927914 97.2036765 80.822546 98.3220588 79.9381902 99.3830882 78.9682515 100.329412 77.9412577 101.161029 76.8001534 101.935294 75.5734663 102.594853 74.2897239 103.111029 72.9489264 103.541176 71.522546 103.827941 70.0391104 103.971324 68.5556748 104 67.0722393 103.885294 65.6458589 103.627206 64.2194785 103.254412 62.8501534 102.766912 61.5093558 102.164706 60.2256135 101.447794 58.9989264 100.644853 57.8292945 99.7272059 56.7452454 98.7235294 55.7467791 97.6051471 54.8338957 96.4294118 54.0065951 95.1676471 53.2934049"></polygon>
                    <path d="M392,254 C392,273.891304 371.351094,292.969309 334.593437,307.033248 C297.835781,321.097187 247.982109,329 196,329 C144.017891,329 94.1642187,321.097187 57.4065625,307.033248 C20.6489062,292.969309 0,273.891304 0,254 C0,234.108696 20.6489062,215.030691 57.4065625,200.966752 C94.1642187,186.902813 144.017891,179 196,179 C247.982109,179 297.835781,186.902813 334.593437,200.966752 C371.351094,215.030691 392,234.108696 392,254 Z" id="路径" fill="url(#linearGradient-1)" fill-rule="nonzero"></path>
                    <g id="编组" transform="translate(68.000000, 163.000000)">
                        <polygon id="_矩形备份-3" fill="#C3D3E4" points="8.09875461 40.0527612 7.9434346 40.4773147 7.9434346 41.3650175 8.37056463 42.1369329 8.75886466 42.4071033 16.3695453 46.9228085 16.7966753 47 17.6509354 46.7684254 18.3110455 46.1122973 18.5051955 45.6877438 18.5051955 44.8000411 18.0392354 44.0281256 17.6897654 43.7579552 10.0402548 39.2422501 9.61312473 39.1650585 8.75886466 39.3966331"></polygon>
                        <path d="M8.64237465,27.1617738 L11.4381349,27.1617738 C11.8264349,27.1617738 12.1370749,27.4705399 12.1370749,27.8564976 L12.1370749,27.8564976 L12.1370749,40.4001232 C12.1370749,41.1720386 11.5157949,41.7895709 10.7391948,41.7895709 L9.34131471,41.7895709 C8.56471465,41.7895709 7.9434346,41.1720386 7.9434346,40.4001232 L7.9434346,40.4001232 L7.9434346,27.8564976 C7.9434346,27.5091357 8.25407462,27.1617738 8.64237465,27.1617738 L8.64237465,27.1617738 L8.64237465,27.1617738 Z" id="路径" fill="#66ABF4" fill-rule="nonzero"></path>
                        <path d="M19.7477556,29.1301581 L14.6610252,21.5267912 L17.2238054,21.5267912 C18.3498755,21.5267912 19.0876455,20.2917265 18.4663655,19.2882365 L13.6902751,11.4918908 L15.1658152,11.4918908 C16.2918853,11.4918908 17.0296553,10.2568261 16.4083753,9.29193184 L11.2828149,0.723670704 C10.7003648,-0.241223568 9.34131471,-0.241223568 8.75886466,0.723670704 L3.63330424,9.29193184 C3.05085419,10.2568261 3.74979425,11.4918908 4.87586434,11.4918908 L6.35140447,11.4918908 L1.53648407,19.2882365 C0.954034021,20.2531308 1.65297408,21.5267912 2.77904417,21.5267912 L5.34182438,21.5267912 L0.255093963,29.1687538 C-0.405016091,30.1336481 0.293923966,31.4459043 1.45882406,31.4459043 L18.3887055,31.4459043 C19.7089256,31.4073086 20.4078656,30.0950524 19.7477556,29.1301581 L19.7477556,29.1301581 Z" id="路径" fill="#A4CFFC" fill-rule="nonzero"></path>
                    </g>
                    <g id="编组" transform="translate(346.000000, 180.000000)">
                        <polygon id="_矩形备份-3-2" fill="#C3D3E4" points="8.11350475 40.0470516 7.95788789 40.471954 7.95788789 41.3603863 8.38583426 42.1329361 8.77487642 42.4033285 16.4001026 46.922745 16.828049 47 17.6839417 46.7682351 18.3453134 46.1115677 18.5398345 45.6866653 18.5398345 44.798233 18.0729839 44.0256832 17.722846 43.7552907 10.0587155 39.2745017 9.63076916 39.1972468 8.77487642 39.4290117"></polygon>
                        <path d="M11.4592673,27.2227245 C11.8483094,27.2227245 12.1595432,27.5317444 12.1595432,27.9180193 L12.1595432,40.4333265 C12.1595432,41.2058763 11.5370757,41.8239162 10.7589914,41.8239162 L9.35843965,41.8239162 C8.58035534,41.8239162 7.95788789,41.2058763 7.95788789,40.4333265 L7.95788789,27.8793918 C7.95788789,27.4931169 8.26912162,27.2227245 8.65816377,27.2227245 L11.4592673,27.2227245 Z" id="路径" fill="#66ABF4" fill-rule="nonzero"></path>
                        <path d="M19.7458652,29.154099 L14.6494129,21.5444833 L17.2170912,21.5444833 C18.3842176,21.5444833 19.0844935,20.3084035 18.4620261,19.3040888 L13.6379033,11.5013355 L15.1162635,11.5013355 C16.2444858,11.5013355 16.9836659,10.2652558 16.3611984,9.29956852 L11.3036504,0.724265461 C10.7200872,-0.24142182 9.35843965,-0.24142182 8.77487642,0.724265461 L3.63951998,9.29956852 C3.05595675,10.2652558 3.75623263,11.5013355 4.88445488,11.5013355 L6.36281506,11.5013355 L1.53869235,19.3040888 C0.955129121,20.269776 1.655405,21.5444833 2.78362725,21.5444833 L5.35130546,21.5444833 L0.254853244,29.154099 C-0.406518418,30.1197863 0.29375746,31.433121 1.49978814,31.433121 L18.4620261,31.433121 C19.7069609,31.3944935 20.4072368,30.1197863 19.7458652,29.154099 L19.7458652,29.154099 Z" id="路径" fill="#B3D8FF" fill-rule="nonzero"></path>
                    </g>
                    <g id="编组" transform="translate(56.000000, 170.000000)">
                        <polygon id="_矩形备份-3-3" fill="#C3D3E4" points="8.09875461 40.0413325 7.9434346 40.4665844 7.9434346 41.3557475 8.37056463 42.1289328 8.75886466 42.3995476 16.3695453 46.9226815 16.7966753 47 17.6509354 46.7680444 18.3110455 46.1108369 18.5051955 45.685585 18.5051955 44.796422 18.0392354 44.0232367 17.6897654 43.7526218 10.0402548 39.2681472 9.61312473 39.1908287 8.75886466 39.4227843"></polygon>
                        <path d="M8.64237465,27.2064569 L11.4381349,27.2064569 C11.8264349,27.2064569 12.1370749,27.515731 12.1370749,27.9023237 L12.1370749,27.9023237 L12.1370749,40.4279251 C12.1370749,41.2011104 11.5157949,41.8196586 10.7391948,41.8196586 L9.34131471,41.8196586 C8.56471465,41.8196586 7.9434346,41.2011104 7.9434346,40.4279251 L7.9434346,40.4279251 L7.9434346,27.8636644 C7.9434346,27.4770718 8.25407462,27.2064569 8.64237465,27.2064569 L8.64237465,27.2064569 L8.64237465,27.2064569 Z" id="路径" fill="#66ABF4" fill-rule="nonzero"></path>
                        <path d="M14.6610252,21.5235451 L17.2238054,21.5235451 C18.3498755,21.5235451 19.0876455,20.2864487 18.4663655,19.2813078 L13.6902751,11.5107958 L15.1658152,11.5107958 C16.2918853,11.5107958 17.0296553,10.2736994 16.4083753,9.30721777 L11.2828149,0.724861197 C10.7003648,-0.241620399 9.34131471,-0.241620399 8.75886466,0.724861197 L3.63330424,9.30721777 C3.05085419,10.2736994 3.74979425,11.5107958 4.87586434,11.5107958 L6.35140447,11.5107958 L1.53648407,19.3199671 C0.954034021,20.2864487 1.65297408,21.5622044 2.77904417,21.5622044 L5.34182438,21.5622044 L0.255093963,29.1780794 C-0.405016091,30.144561 0.293923966,31.4589759 1.45882406,31.4589759 L18.3887055,31.4589759 C19.7089256,31.4203167 20.4078656,30.1059017 19.7477556,29.1394201 L14.6610252,21.5235451 Z" id="路径" fill="#B3D8FF" fill-rule="nonzero"></path>
                    </g>
                    <polygon id="_路径-9" fill="url(#linearGradient-2)" points="173.75 275.25 317.75 259 223 214 163 214"></polygon>
                </g>
                <g id="暂无视频" transform="translate(98.000000, 100.000000)">
                    <g id="编组" transform="translate(25.000000, 0.000000)">
                        <g transform="translate(50.662184, 91.516031)" fill-rule="nonzero" id="路径">
                            <polygon fill="#90A1DC" points="0 0 38.5510824 0 38.5510824 18.8035115 0 18.8035115"></polygon>
                            <polygon fill="url(#linearGradient-3)" points="0 0 38.5510824 0 38.5510824 18.8035115 0 18.8035115"></polygon>
                            <polygon fill="url(#linearGradient-4)" points="0 0 38.5510824 0 38.5510824 18.8035115 0 18.8035115"></polygon>
                        </g>
                        <path d="M50.6621845,78.0963359 L89.2132669,78.0963359 L89.2132669,96.8998473 L50.6621845,96.8998473 L50.6621845,78.0963359 Z M98.7065931,116 L41.1821915,116 C40.542192,116 40.0088591,115.468702 40.0088591,114.831145 L40.0088591,113.06458 C40.0088591,112.834351 40.1955256,112.643969 40.431081,112.643969 L99.4754814,112.643969 C99.7110368,112.643969 99.8977033,112.834351 99.8977033,113.06458 L99.8977033,114.831145 C99.8799256,115.486412 99.3643704,116 98.7065931,116 Z" id="形状" fill="#4A89F0" fill-rule="nonzero"></path>
                        <path d="M99.2577038,113.737557 L40.6177475,113.737557 C40.0266368,113.737557 39.7599704,112.989313 40.2266367,112.630687 L50.6621845,104.32916 L89.2132669,104.32916 L99.6488146,112.630687 C100.115481,112.989313 99.8488145,113.737557 99.2577038,113.737557 Z" id="路径" fill="url(#linearGradient-5)" fill-rule="nonzero"></path>
                        <path d="M137.199898,93.3268702 L2.81333124,93.3268702 C1.26666572,93.3268702 0,92.0650382 0,90.5198473 L0,2.8070229 C0,1.26183206 1.26666572,0 2.81333124,0 L137.186564,0 C138.73323,0 140,1.26183206 140,2.8070229 L140,90.5331298 C140.013229,92.0783206 138.746563,93.3268702 137.199898,93.3268702 Z" id="路径" fill="url(#linearGradient-6)"></path>
                        <polygon id="路径" fill="url(#linearGradient-7)" fill-rule="nonzero" points="6.55555067 6.25603053 133.617678 6.25603053 133.617678 82.7629008 6.55555067 82.7629008"></polygon>
                        <polygon id="路径" fill-opacity="0.31333414" fill="#FFFFFF" fill-rule="nonzero" points="87.4177126 82.4219847 48.8310747 82.0146565 124.795463 6.27374046 133.555456 6.27374046 133.399901 36.5444275"></polygon>
                        <polygon id="路径" fill-opacity="0.31333414" fill="#FFFFFF" fill-rule="nonzero" points="21.0977621 82.8868702 14.0622117 82.8868702 90.6221547 6.27374046 97.6621495 6.27374046"></polygon>
                    </g>
                    <polygon id="椭圆形" fill="url(#radialGradient-8)" fill-rule="nonzero" points="197 16 196.846761 18.1994366 196.427606 20.268169 195.742535 22.2287324 194.809577 24.0856338 193.669296 25.7757746 192.312676 27.3126761 190.775775 28.6692958 189.085634 29.8095775 187.228732 30.7425352 185.268169 31.4276056 183.199437 31.8467606 181 32 178.800563 31.8467606 176.731831 31.4276056 174.771268 30.7425352 172.914366 29.8095775 171.224225 28.6692958 169.687324 27.3126761 168.330704 25.7757746 167.190423 24.0856338 166.257465 22.2287324 165.572394 20.268169 165.153239 18.1994366 165 16 165.153239 13.8005634 165.572394 11.731831 166.257465 9.77126761 167.190423 7.9143662 168.330704 6.22422535 169.687324 4.68732394 171.224225 3.33070423 172.914366 2.19042254 174.771268 1.25746479 176.731831 0.572394366 178.800563 0.153239437 181 0 183.199437 0.153239437 185.268169 0.572394366 187.228732 1.25746479 189.085634 2.19042254 190.775775 3.33070423 192.312676 4.68732394 193.669296 6.22422535 194.809577 7.9143662 195.742535 9.77126761 196.427606 11.731831 196.846761 13.8005634"></polygon>
                    <polygon id="椭圆形备份" fill-opacity="0.56253344" fill="url(#radialGradient-8)" fill-rule="nonzero" points="17 66.5 16.8561538 68.0517949 16.4682051 69.4728205 15.8405128 70.7892308 14.9948718 71.9835897 13.9835897 72.9948718 12.7892308 73.8405128 11.4728205 74.4682051 10.0517949 74.8561538 8.5 75 6.94820513 74.8561538 5.52717949 74.4682051 4.21076923 73.8405128 3.01641026 72.9948718 2.00512821 71.9835897 1.15948718 70.7892308 0.531794872 69.4728205 0.143846154 68.0517949 0 66.5 0.143846154 64.9482051 0.531794872 63.5271795 1.15948718 62.2107692 2.00512821 61.0164103 3.01641026 60.0051282 4.21076923 59.1594872 5.52717949 58.5317949 6.94820513 58.1438462 8.5 58 10.0517949 58.1438462 11.4728205 58.5317949 12.7892308 59.1594872 13.9835897 60.0051282 14.9948718 61.0164103 15.8405128 62.2107692 16.4682051 63.5271795 16.8561538 64.9482051"></polygon>
                </g>
                <path d="M227.037052,215.779484 C234.445138,217.548062 239.759888,221.767493 238.910923,225.205548 C238.061959,228.639791 231.367158,229.992906 223.962948,228.220516 C216.554862,226.451938 211.240112,222.232507 212.089077,218.794452 C212.941918,215.360209 219.632842,214.007094 227.037052,215.779484 Z" id="路径" fill="#C6D6EE" fill-rule="nonzero"></path>
                <g id="编组" transform="translate(210.000000, 185.000000)">
                    <polygon id="Path-9" fill="url(#linearGradient-9)" points="0.603773585 32.3564356 0.867924528 33.2079208 1.24528302 33.9432943 1.62264151 34.3690369 3.24528302 35.4527453 4.56603774 35.7236724 5.96226415 35.8010801 7.39622642 35.7236724 8.94339623 35.4527453 10.6037736 34.9882988 12.3773585 34.2529253 14.3018868 33.2466247 17.6603774 39.9036904 18.2641509 39.8262826 20.2641509 39.129613 19.245283 32.6660666 21.6226415 36.2268227 22.6792453 38.1620162 22.9433962 38.2394239 23.6603774 38.0846085 25.2075472 37.5814581 23.9622642 30.7308731 23.245283 27.8280828 21.6981132 22.7965797 20.8301887 21.3645365 19.4716981 19.6228623 18.754717 18.9648965 17.6603774 18.3069307 17.0943396 18.229523 16.2264151 18.3069307 15.6603774 18.6165617 15.2075472 19.0036004 14.2264151 20.1260126 13.1698113 19.6615662 12.1132075 19.3906391 11.0943396 19.3132313 10.0377358 19.3906391 8.98113208 19.6615662 7.9245283 20.1260126 6.79245283 20.8613861 5.58490566 21.790279 4.33962264 23.0288029 2.98113208 24.5769577 1.58490566 26.5508551 0.25 29.75 0.377358491 31.0018002"></polygon>
                    <polygon id="Path-12" fill="#FACEBB" points="14.9433962 26.9765977 16.6792453 26.8991899 17.7358491 26.7443744 18.3018868 26.4734473 18.5660377 26.2025203 18.6415094 25.8928893 18.5283019 25.5058506 16.5283019 25.6606661 15.8867925 25.5832583 15.8113208 25.5058506 15.6603774 24.4608461 15.3962264 24.6930693 15.0188679 25.5058506"></polygon>
                    <polygon id="Path-11" fill="#FACEBB" points="22.5283019 23.4545455 21.4716981 23.1836184 20.4150943 22.6030603 20.490566 22.9513951 21.0566038 23.8028803 20.4528302 24.3834383 19.7358491 24.3060306 19.1698113 24.3447345 18.7924528 24.49955 18.5283019 24.770477 18.3396226 25.1575158 18.2641509 25.7380738 21.6981132 25.6606661 22.5283019 24.9639964 23.1698113 24.1125113"></polygon>
                    <polygon id="Path-13" fill="#FACEBB" points="13.6603774 3.83168317 12.4150943 3.75427543 11.5471698 3.83168317 10.9433962 4.02520252 10.3773585 4.33483348 9.69811321 4.91539154 8.86792453 5.8829883 7.8490566 7.3150315 8.11320755 8.78577858 8.33962264 11.4176418 8.79245283 11.9207921 9.24528302 12.2691269 9.81132075 12.4626463 10.4150943 12.5013501 11.0943396 12.3852385 11.9245283 12.1143114 11.9245283 9.71467147 12.7924528 9.63726373 13.509434 9.4050405 14.1132075 9.09540954 14.5660377 8.66966697 14.9433962 8.08910891 15.2075472 7.39243924 15.3962264 6.46354635 15.4339623 5.37983798 15.3207547 3.98649865"></polygon>
                    <polygon id="Path-8" fill="#459FFF" points="11.8867925 11.3015302 11.5471698 11.8433843 10.9811321 12.1917192 10.5660377 12.1530153 9.58490566 11.7659766 8.11320755 10.6435644 7.05660377 11.0306031 6.11320755 11.4950495 4.49056604 12.6561656 3.58490566 13.5850585 2.83018868 14.5913591 2.1509434 15.7137714 1.13207547 18.1134113 0.377358491 21.209721 0.0377358491 24.8091809 0 26.3186319 0.188679245 29.8406841 0.867924528 29.260126 4.90566038 24.0738074 6.37735849 25.2736274 7.20754717 25.7380738 8.52830189 26.3186319 9.8490566 26.7443744 12.3396226 27.2862286 14.3018868 27.479748 15.2075472 27.5184518 15.3207547 27.4410441 15.3962264 27.170117 15.3962264 26.3960396 15.1698113 25.1575158 13.2830189 23.7641764 11.0943396 21.9450945 10.5660377 21.4032403 10.2641509 20.90009 10.2264151 20.6291629 10.3018868 20.4743474 10.5283019 20.3969397 11.3207547 20.319532 12.1509434 19.9324932 12.7169811 19.7776778 13.6981132 19.8937894 14.7169811 20.2808281 15.2075472 19.5454545 15.7358491 19.0423042 16.2641509 18.7713771 16.8301887 18.6552655 17.4339623 18.7326733 18.1509434 19.0036004 18.9811321 19.5841584 19.9622642 20.4743474 21.1320755 21.8676868 22.490566 23.8028803 22.9056604 24.3060306 23.1698113 24.3834383 23.3207547 24.3060306 23.6226415 22.9513951 23.7358491 21.7128713 23.6603774 20.5130513 23.4339623 19.3519352 23.0566038 18.2682268 22.490566 17.1845185 21.7735849 16.139514 20.8679245 15.0945095 19.6981132 14.0882088 18.3018868 13.1206121 16.6037736 12.1530153 14.6037736 11.2241224 12.2264151 10.3339334"></polygon>
                    <polygon id="Path-14" fill="#000E1E" points="15.8113208 3.09630963 15.6981132 2.36093609 15.509434 1.85778578 14.2641509 0.619261926 13.7358491 0.270927093 13.1698113 0.0387038704 12.7169811 0 11.3207547 0.270927093 10 0.309630963 8.98113208 0.464446445 8.26415094 0.696669667 7.54716981 1.0450045 6.67924528 1.81908191 6.30188679 2.51575158 6.11320755 3.21242124 6.0754717 3.83168317 6.30188679 4.68316832 6.49056604 4.72187219 6.64150943 4.95409541 6.90566038 5.68946895 7.35849057 7.54725473 8.0754717 7.54725473 8.18867925 7.12151215 8.67924528 6.5409541 10.9433962 4.21872187 11.509434 3.83168317 13.4339623 3.71557156 14 3.83168317 14.5660377 4.21872187 15.1320755 4.87668767 15.2830189 4.21872187 15.8113208 4.21872187"></polygon>
                    <polygon id="Path-15" fill="#000E1E" points="23.2830189 38.0459046 23.2075472 38.2394239 23.2830189 39.2844284 23.6226415 40.3681368 25.4339623 40.8712871 26.6792453 41.1035104 27.6603774 41.0648065 27.9245283 40.8712871 28 40.6777678 28 40.2133213 27.8490566 39.9423942 26.8301887 39.5553555 25.9622642 39.0522052 25.2830189 38.4329433 24.7169811 37.6975698"></polygon>
                    <polygon id="Path-15-Copy" fill="#000E1E" points="18 39.7488749 18 40.4842484 18.7169811 42.2259226 20.5660377 42.7677768 21.7735849 43 22.754717 42.9225923 23.0188679 42.7677768 23.0943396 42.5355536 23.0943396 42.0711071 22.9433962 41.7614761 22.1132075 41.4518452 21.4339623 41.0648065 20.8301887 40.5616562 20.3396226 39.9810981 19.9245283 39.2457246"></polygon>
                </g>
                <polyline id="路径-28" stroke="url(#linearGradient-10)" stroke-width="7" stroke-linecap="round" stroke-linejoin="round" points="158 163 179.16156 140.75 202.300836 159.5 229 125"></polyline>
            </g>
        </g>
    </g>
</svg>